<svg width="534" height="258" viewBox="0 0 534 258" fill="none" xmlns="http://www.w3.org/2000/svg">
<path d="M39.4463 139H31.7871L12.1396 107.728V139H4.48047V94.9219H12.1396L31.8477 126.315V94.9219H39.4463V139ZM67.3584 139C67.0355 138.374 66.7529 137.355 66.5107 135.942C64.1696 138.384 61.3037 139.605 57.9131 139.605C54.6234 139.605 51.9391 138.667 49.8604 136.79C47.7816 134.913 46.7422 132.592 46.7422 129.827C46.7422 126.336 48.0339 123.661 50.6172 121.805C53.2207 119.928 56.9342 118.989 61.7578 118.989H66.2686V116.84C66.2686 115.145 65.7943 113.792 64.8457 112.783C63.8971 111.754 62.4541 111.239 60.5166 111.239C58.8415 111.239 57.4691 111.663 56.3994 112.511C55.3298 113.338 54.7949 114.398 54.7949 115.689H47.4385C47.4385 113.893 48.0339 112.218 49.2246 110.664C50.4154 109.09 52.0299 107.859 54.0684 106.971C56.127 106.083 58.4176 105.639 60.9404 105.639C64.7751 105.639 67.8327 106.607 70.1133 108.545C72.3939 110.462 73.5645 113.167 73.625 116.658V131.432C73.625 134.378 74.0387 136.729 74.8662 138.485V139H67.3584ZM59.2754 133.702C60.7285 133.702 62.0908 133.349 63.3623 132.643C64.654 131.936 65.6227 130.988 66.2686 129.797V123.621H62.3027C59.5781 123.621 57.5296 124.095 56.1572 125.044C54.7848 125.993 54.0986 127.335 54.0986 129.07C54.0986 130.483 54.5628 131.613 55.4912 132.461C56.4398 133.288 57.7012 133.702 59.2754 133.702ZM79.9521 122.38C79.9521 117.334 81.1227 113.288 83.4639 110.24C85.805 107.173 88.9434 105.639 92.8789 105.639C96.3503 105.639 99.1556 106.85 101.295 109.271V92.5H108.651V139H101.991L101.628 135.609C99.4281 138.273 96.4915 139.605 92.8184 139.605C88.9837 139.605 85.8757 138.062 83.4941 134.974C81.1328 131.886 79.9521 127.688 79.9521 122.38ZM87.3086 123.016C87.3086 126.346 87.9443 128.949 89.2158 130.826C90.5075 132.683 92.334 133.611 94.6953 133.611C97.7025 133.611 99.9023 132.269 101.295 129.585V115.599C99.9427 112.975 97.763 111.663 94.7559 111.663C92.3743 111.663 90.5378 112.612 89.2461 114.509C87.9544 116.386 87.3086 119.221 87.3086 123.016ZM135.897 139C135.575 138.374 135.292 137.355 135.05 135.942C132.709 138.384 129.843 139.605 126.452 139.605C123.162 139.605 120.478 138.667 118.399 136.79C116.321 134.913 115.281 132.592 115.281 129.827C115.281 126.336 116.573 123.661 119.156 121.805C121.76 119.928 125.473 118.989 130.297 118.989H134.808V116.84C134.808 115.145 134.333 113.792 133.385 112.783C132.436 111.754 130.993 111.239 129.056 111.239C127.381 111.239 126.008 111.663 124.938 112.511C123.869 113.338 123.334 114.398 123.334 115.689H115.978C115.978 113.893 116.573 112.218 117.764 110.664C118.954 109.09 120.569 107.859 122.607 106.971C124.666 106.083 126.957 105.639 129.479 105.639C133.314 105.639 136.372 106.607 138.652 108.545C140.933 110.462 142.104 113.167 142.164 116.658V131.432C142.164 134.378 142.578 136.729 143.405 138.485V139H135.897ZM127.814 133.702C129.268 133.702 130.63 133.349 131.901 132.643C133.193 131.936 134.162 130.988 134.808 129.797V123.621H130.842C128.117 123.621 126.069 124.095 124.696 125.044C123.324 125.993 122.638 127.335 122.638 129.07C122.638 130.483 123.102 131.613 124.03 132.461C124.979 133.288 126.24 133.702 127.814 133.702ZM193.992 122.955C193.992 128.021 192.842 132.067 190.541 135.095C188.24 138.102 185.152 139.605 181.277 139.605C177.685 139.605 174.809 138.425 172.649 136.063V151.594H165.293V106.244H172.074L172.377 109.574C174.536 106.951 177.473 105.639 181.187 105.639C185.183 105.639 188.311 107.132 190.571 110.119C192.852 113.086 193.992 117.213 193.992 122.501V122.955ZM186.666 122.319C186.666 119.05 186.01 116.456 184.698 114.539C183.407 112.622 181.55 111.663 179.128 111.663C176.121 111.663 173.961 112.904 172.649 115.387V129.918C173.981 132.461 176.161 133.732 179.188 133.732C181.53 133.732 183.356 132.794 184.668 130.917C186 129.02 186.666 126.154 186.666 122.319ZM198.866 122.319C198.866 119.11 199.502 116.224 200.773 113.661C202.045 111.078 203.831 109.1 206.132 107.728C208.433 106.335 211.076 105.639 214.063 105.639C218.483 105.639 222.066 107.062 224.811 109.907C227.576 112.753 229.069 116.527 229.291 121.229L229.321 122.955C229.321 126.184 228.696 129.07 227.444 131.613C226.213 134.156 224.437 136.124 222.116 137.517C219.815 138.909 217.151 139.605 214.124 139.605C209.502 139.605 205.799 138.072 203.014 135.004C200.249 131.916 198.866 127.809 198.866 122.683V122.319ZM206.223 122.955C206.223 126.326 206.919 128.969 208.312 130.887C209.704 132.784 211.642 133.732 214.124 133.732C216.606 133.732 218.534 132.764 219.906 130.826C221.299 128.889 221.995 126.053 221.995 122.319C221.995 119.009 221.279 116.386 219.846 114.448C218.433 112.511 216.506 111.542 214.063 111.542C211.662 111.542 209.755 112.501 208.342 114.418C206.929 116.315 206.223 119.161 206.223 122.955ZM252.692 112.965C251.724 112.803 250.725 112.723 249.695 112.723C246.325 112.723 244.054 114.014 242.884 116.598V139H235.527V106.244H242.551L242.732 109.907C244.508 107.062 246.971 105.639 250.119 105.639C251.169 105.639 252.036 105.78 252.723 106.062L252.692 112.965ZM330.759 139C330.332 138.173 329.958 136.825 329.638 134.956C326.541 138.186 322.751 139.801 318.267 139.801C313.916 139.801 310.366 138.56 307.616 136.077C304.867 133.595 303.492 130.525 303.492 126.868C303.492 122.25 305.201 118.714 308.617 116.258C312.061 113.775 316.972 112.534 323.352 112.534H329.317V109.691C329.317 107.449 328.69 105.661 327.436 104.326C326.181 102.965 324.272 102.284 321.71 102.284C319.494 102.284 317.679 102.845 316.265 103.966C314.85 105.06 314.143 106.462 314.143 108.17H304.413C304.413 105.794 305.201 103.579 306.775 101.523C308.35 99.4414 310.486 97.8132 313.182 96.6387C315.904 95.4642 318.934 94.877 322.271 94.877C327.342 94.877 331.386 96.1582 334.402 98.7207C337.419 101.257 338.967 104.833 339.047 109.451V128.99C339.047 132.887 339.594 135.997 340.688 138.319V139H330.759ZM320.068 131.993C321.99 131.993 323.792 131.526 325.474 130.592C327.182 129.658 328.463 128.403 329.317 126.828V118.66H324.072C320.469 118.66 317.759 119.287 315.944 120.542C314.129 121.797 313.222 123.572 313.222 125.867C313.222 127.736 313.836 129.23 315.063 130.352C316.318 131.446 317.986 131.993 320.068 131.993ZM347.415 116.979C347.415 110.199 348.963 104.82 352.06 100.843C355.156 96.8656 359.347 94.877 364.632 94.877C369.463 94.877 373.294 96.5719 376.123 99.9619L376.684 95.6777H385.332V155.656H375.603V135.316C372.773 138.306 369.09 139.801 364.552 139.801C359.373 139.801 355.223 137.785 352.1 133.755C348.977 129.698 347.415 124.105 347.415 116.979ZM357.145 117.819C357.145 122.25 358.012 125.734 359.747 128.27C361.509 130.779 363.938 132.033 367.034 132.033C370.878 132.033 373.734 130.392 375.603 127.108V107.409C373.734 104.259 370.905 102.685 367.114 102.685C364.018 102.685 361.576 103.926 359.787 106.408C358.025 108.891 357.145 112.694 357.145 117.819ZM422.088 134.756C419.232 138.119 415.174 139.801 409.916 139.801C405.218 139.801 401.655 138.426 399.226 135.677C396.823 132.927 395.622 128.95 395.622 123.745V95.6777H405.352V123.625C405.352 129.124 407.634 131.873 412.198 131.873C416.923 131.873 420.113 130.178 421.768 126.788V95.6777H431.497V139H422.328L422.088 134.756ZM451.757 139H442.027V95.6777H451.757V139ZM441.427 84.4268C441.427 82.932 441.894 81.6908 442.828 80.7031C443.789 79.7155 445.15 79.2217 446.912 79.2217C448.674 79.2217 450.035 79.7155 450.996 80.7031C451.957 81.6908 452.438 82.932 452.438 84.4268C452.438 85.8949 451.957 87.1227 450.996 88.1104C450.035 89.0713 448.674 89.5518 446.912 89.5518C445.15 89.5518 443.789 89.0713 442.828 88.1104C441.894 87.1227 441.427 85.8949 441.427 84.4268ZM467.375 129.75C469.013 129.75 470.278 130.22 471.169 131.159C472.06 132.075 472.506 133.231 472.506 134.628C472.506 136.001 472.06 137.145 471.169 138.061C470.278 138.952 469.013 139.397 467.375 139.397C465.809 139.397 464.569 138.952 463.653 138.061C462.738 137.169 462.28 136.025 462.28 134.628C462.28 133.231 462.726 132.075 463.617 131.159C464.508 130.22 465.761 129.75 467.375 129.75ZM488.043 129.75C489.681 129.75 490.946 130.22 491.837 131.159C492.728 132.075 493.174 133.231 493.174 134.628C493.174 136.001 492.728 137.145 491.837 138.061C490.946 138.952 489.681 139.397 488.043 139.397C486.477 139.397 485.237 138.952 484.321 138.061C483.406 137.169 482.948 136.025 482.948 134.628C482.948 133.231 483.394 132.075 484.285 131.159C485.176 130.22 486.429 129.75 488.043 129.75ZM507.094 131.25C508.466 131.25 509.526 131.644 510.272 132.431C511.019 133.198 511.393 134.166 511.393 135.337C511.393 136.487 511.019 137.446 510.272 138.213C509.526 138.96 508.466 139.333 507.094 139.333C505.782 139.333 504.743 138.96 503.976 138.213C503.209 137.466 502.825 136.507 502.825 135.337C502.825 134.166 503.199 133.198 503.945 132.431C504.692 131.644 505.742 131.25 507.094 131.25ZM524.41 131.25C525.783 131.25 526.842 131.644 527.589 132.431C528.336 133.198 528.709 134.166 528.709 135.337C528.709 136.487 528.336 137.446 527.589 138.213C526.842 138.96 525.783 139.333 524.41 139.333C523.098 139.333 522.059 138.96 521.292 138.213C520.525 137.466 520.142 136.507 520.142 135.337C520.142 134.166 520.515 133.198 521.262 132.431C522.008 131.644 523.058 131.25 524.41 131.25Z" fill="#415A72"/>
<g clip-path="url(#clip0)">
<path d="M510.264 189.753L474.182 162.691C483.202 147.228 487.068 129.187 487.068 109.857C487.068 49.2912 438.1 0.322998 377.534 0.322998C316.968 0.322998 268 49.2912 268 109.857C268 170.422 316.968 219.391 377.534 219.391C396.864 219.391 413.616 214.236 430.368 206.504L457.429 242.586C471.604 260.627 498.666 263.204 515.418 246.452C530.882 230.988 529.593 203.927 510.264 189.753ZM377.534 193.618C331.143 193.618 293.773 156.248 293.773 109.857C293.773 63.4662 331.143 26.0957 377.534 26.0957C423.925 26.0957 461.295 63.4662 461.295 109.857C461.295 156.247 423.925 193.618 377.534 193.618Z" fill="white"/>
<circle cx="377.5" cy="110.5" r="87.5" fill="#EDEDED" fill-opacity="0.13"/>
</g>
<defs>
<clipPath id="clip0">
<rect width="258" height="258" fill="white" transform="translate(268)"/>
</clipPath>
</defs>
</svg>
