<?xml version="1.0"?>
<svg xmlns="http://www.w3.org/2000/svg" xmlns:xlink="http://www.w3.org/1999/xlink" xmlns:svgjs="http://svgjs.com/svgjs" version="1.1" width="512" height="512" x="0" y="0" viewBox="0 0 446 446" style="enable-background:new 0 0 512 512" xml:space="preserve" class=""><g><path xmlns="http://www.w3.org/2000/svg" d="m170.5 295.5c-11.652344-11.773438-27.53125-18.398438-44.101562-18.398438-16.566407 0-32.445313 6.625-44.097657 18.398438-10.300781 10.5-16.5 24.5-18 39.800781h124.199219c-1.203125-14.953125-7.566406-29.023437-18-39.800781zm0 0" fill="#ffffff" data-original="#000000" style="" class=""/><path xmlns="http://www.w3.org/2000/svg" d="m160.664062 183.847656c3.070313 18.917969-9.773437 36.742188-28.691406 39.8125-18.917968 3.066406-36.742187-9.777344-39.8125-28.695312-3.070312-18.917969 9.777344-36.742188 28.695313-39.8125 18.914062-3.070313 36.738281 9.777344 39.808593 28.695312zm0 0" fill="#ffffff" data-original="#000000" style="" class=""/><path xmlns="http://www.w3.org/2000/svg" d="m413 0h-380c-18.21875.0195312-32.9804688 14.78125-33 33v44.699219h446v-44.699219c-.019531-18.21875-14.78125-32.9804688-33-33zm0 0" fill="#ffffff" data-original="#000000" style="" class=""/><path xmlns="http://www.w3.org/2000/svg" d="m0 357c.0195312 18.21875 14.78125 32.980469 33 33h380c18.21875-.019531 32.980469-14.78125 33-33v-265.300781h-446zm261.898438-206.300781h126.5c3.867187 0 7 3.136719 7 7 0 3.867187-3.132813 7-7 7h-126.5c-3.863282 0-7-3.132813-7-7 0-3.863281 3.136718-7 7-7zm0 58.199219h126.5c3.867187 0 7 3.136718 7 7 0 3.867187-3.132813 7-7 7h-126.5c-3.863282 0-7-3.132813-7-7 0-3.863282 3.136718-7 7-7zm0 58.203124h126.5c3.867187 0 7 3.132813 7 7 0 3.863282-3.132813 7-7 7h-126.5c-3.863282 0-7-3.136718-7-7 0-3.867187 3.136718-7 7-7zm0 58.199219h126.5c3.867187 0 7 3.132813 7 7 0 3.863281-3.132813 7-7 7h-126.5c-3.863282 0-7-3.136719-7-7 0-3.867187 3.136718-7 7-7zm-135.5-184.601562c26.871093.027343 48.628906 21.832031 48.601562 48.699219-.027344 26.871093-21.832031 48.628906-48.699219 48.601562-26.871093-.027344-48.628906-21.832031-48.601562-48.699219.089843-26.84375 21.855469-48.570312 48.699219-48.601562zm-54.097657 145c14.289063-14.460938 33.769531-22.597657 54.097657-22.597657 20.332031 0 39.8125 8.136719 54.101562 22.597657 14.398438 14.699219 22.300781 34.800781 22.300781 56.601562.011719 1.859375-.722656 3.644531-2.039062 4.960938-1.316407 1.316406-3.101563 2.050781-4.960938 2.039062h-138.800781c-1.859375.011719-3.648438-.722656-4.960938-2.039062-1.316406-1.316407-2.050781-3.101563-2.039062-4.960938 0-21.800781 7.898438-41.902343 22.300781-56.601562zm0 0" fill="#ffffff" data-original="#000000" style="" class=""/></g></svg>
